<svg width="400" height="200" viewBox="0 0 680 400" xmlns="http://www.w3.org/2000/svg">
<rect width="680" height="400" fill="#0b1220"/>
<line x1="0" y1="40" x2="680" y2="40" stroke="#1687d9" stroke-width="0.3" opacity="0.18"/><line x1="0" y1="80" x2="680" y2="80" stroke="#1687d9" stroke-width="0.3" opacity="0.18"/><line x1="0" y1="120" x2="680" y2="120" stroke="#1687d9" stroke-width="0.3" opacity="0.18"/><line x1="0" y1="160" x2="680" y2="160" stroke="#1687d9" stroke-width="0.3" opacity="0.18"/><line x1="0" y1="200" x2="680" y2="200" stroke="#1687d9" stroke-width="0.3" opacity="0.18"/><line x1="0" y1="240" x2="680" y2="240" stroke="#1687d9" stroke-width="0.3" opacity="0.18"/><line x1="0" y1="280" x2="680" y2="280" stroke="#1687d9" stroke-width="0.3" opacity="0.18"/><line x1="0" y1="320" x2="680" y2="320" stroke="#1687d9" stroke-width="0.3" opacity="0.18"/><line x1="0" y1="360" x2="680" y2="360" stroke="#1687d9" stroke-width="0.3" opacity="0.18"/><line x1="40" y1="0" x2="40" y2="400" stroke="#1687d9" stroke-width="0.3" opacity="0.18"/><line x1="80" y1="0" x2="80" y2="400" stroke="#1687d9" stroke-width="0.3" opacity="0.18"/><line x1="120" y1="0" x2="120" y2="400" stroke="#1687d9" stroke-width="0.3" opacity="0.18"/><line x1="160" y1="0" x2="160" y2="400" stroke="#1687d9" stroke-width="0.3" opacity="0.18"/><line x1="200" y1="0" x2="200" y2="400" stroke="#1687d9" stroke-width="0.3" opacity="0.18"/><line x1="240" y1="0" x2="240" y2="400" stroke="#1687d9" stroke-width="0.3" opacity="0.18"/><line x1="280" y1="0" x2="280" y2="400" stroke="#1687d9" stroke-width="0.3" opacity="0.18"/><line x1="320" y1="0" x2="320" y2="400" stroke="#1687d9" stroke-width="0.3" opacity="0.18"/><line x1="360" y1="0" x2="360" y2="400" stroke="#1687d9" stroke-width="0.3" opacity="0.18"/><line x1="400" y1="0" x2="400" y2="400" stroke="#1687d9" stroke-width="0.3" opacity="0.18"/><line x1="440" y1="0" x2="440" y2="400" stroke="#1687d9" stroke-width="0.3" opacity="0.18"/><line x1="480" y1="0" x2="480" y2="400" stroke="#1687d9" stroke-width="0.3" opacity="0.18"/><line x1="520" y1="0" x2="520" y2="400" stroke="#1687d9" stroke-width="0.3" opacity="0.18"/><line x1="560" y1="0" x2="560" y2="400" stroke="#1687d9" stroke-width="0.3" opacity="0.18"/><line x1="600" y1="0" x2="600" y2="400" stroke="#1687d9" stroke-width="0.3" opacity="0.18"/><line x1="640" y1="0" x2="640" y2="400" stroke="#1687d9" stroke-width="0.3" opacity="0.18"/>
<rect x="20" y="340" width="640" height="12" fill="#1a2840" rx="2"/>
<rect x="40" y="140" width="130" height="200" fill="#162238" stroke="#1687d9" stroke-width="1.2" rx="3"/><rect x="48" y="148" width="114" height="184" fill="#101928" rx="2"/><line x1="40" y1="210" x2="170" y2="210" stroke="#1687d9" stroke-width="0.8" opacity="0.6"/><line x1="40" y1="270" x2="170" y2="270" stroke="#1687d9" stroke-width="0.8" opacity="0.6"/><rect x="55" y="155" width="80" height="48" fill="#0d1f38" stroke="#56c7ff" stroke-width="0.7" rx="2" opacity="0.8"/><line x1="60" y1="163" x2="130" y2="163" stroke="#56c7ff" stroke-width="0.5" opacity="0.5"/><line x1="60" y1="170" x2="130" y2="170" stroke="#56c7ff" stroke-width="0.5" opacity="0.5"/><line x1="60" y1="177" x2="130" y2="177" stroke="#56c7ff" stroke-width="0.5" opacity="0.5"/><line x1="60" y1="184" x2="130" y2="184" stroke="#56c7ff" stroke-width="0.5" opacity="0.5"/><line x1="60" y1="191" x2="130" y2="191" stroke="#56c7ff" stroke-width="0.5" opacity="0.5"/><circle cx="105" cy="240" r="22" fill="#0d1f38" stroke="#1687d9" stroke-width="1"/><circle cx="105" cy="240" r="16" fill="none" stroke="#56c7ff" stroke-width="0.8" opacity="0.7"/><circle cx="105" cy="240" r="5" fill="#1687d9"/><line x1="105" y1="224" x2="105" y2="232" stroke="#56c7ff" stroke-width="1.5" stroke-linecap="round"/><line x1="105" y1="248" x2="105" y2="256" stroke="#56c7ff" stroke-width="1.5" stroke-linecap="round"/><line x1="89" y1="240" x2="97" y2="240" stroke="#56c7ff" stroke-width="1.5" stroke-linecap="round"/><line x1="113" y1="240" x2="121" y2="240" stroke="#56c7ff" stroke-width="1.5" stroke-linecap="round"/><rect x="55" y="277" width="80" height="52" fill="#0d1f38" stroke="#1687d9" stroke-width="0.7" rx="2" opacity="0.7"/><line x1="60" y1="284" x2="130" y2="284" stroke="#1687d9" stroke-width="0.8" opacity="0.5"/><line x1="60" y1="291" x2="130" y2="291" stroke="#1687d9" stroke-width="0.8" opacity="0.5"/><line x1="60" y1="298" x2="130" y2="298" stroke="#1687d9" stroke-width="0.8" opacity="0.5"/><line x1="60" y1="305" x2="130" y2="305" stroke="#1687d9" stroke-width="0.8" opacity="0.5"/><line x1="60" y1="312" x2="130" y2="312" stroke="#1687d9" stroke-width="0.8" opacity="0.5"/>
<rect x="195" y="120" width="130" height="220" fill="#162238" stroke="#1687d9" stroke-width="1.2" rx="3"/><rect x="203" y="128" width="114" height="204" fill="#101928" rx="2"/><line x1="195" y1="195" x2="325" y2="195" stroke="#1687d9" stroke-width="0.8" opacity="0.6"/><line x1="195" y1="258" x2="325" y2="258" stroke="#1687d9" stroke-width="0.8" opacity="0.6"/><rect x="210" y="135" width="80" height="52" fill="#0d1f38" stroke="#56c7ff" stroke-width="0.7" rx="2" opacity="0.8"/><line x1="215" y1="143" x2="285" y2="143" stroke="#56c7ff" stroke-width="0.5" opacity="0.5"/><line x1="215" y1="151" x2="285" y2="151" stroke="#56c7ff" stroke-width="0.5" opacity="0.5"/><line x1="215" y1="159" x2="285" y2="159" stroke="#56c7ff" stroke-width="0.5" opacity="0.5"/><line x1="215" y1="167" x2="285" y2="167" stroke="#56c7ff" stroke-width="0.5" opacity="0.5"/><line x1="215" y1="175" x2="285" y2="175" stroke="#56c7ff" stroke-width="0.5" opacity="0.5"/><line x1="215" y1="183" x2="285" y2="183" stroke="#56c7ff" stroke-width="0.5" opacity="0.5"/><circle cx="260" cy="228" r="25" fill="#0d1f38" stroke="#1687d9" stroke-width="1"/><circle cx="260" cy="228" r="18" fill="none" stroke="#56c7ff" stroke-width="0.8" opacity="0.7"/><circle cx="260" cy="228" r="5" fill="#1687d9"/><line x1="260" y1="210" x2="260" y2="220" stroke="#56c7ff" stroke-width="1.5" stroke-linecap="round"/><line x1="260" y1="236" x2="260" y2="246" stroke="#56c7ff" stroke-width="1.5" stroke-linecap="round"/><line x1="242" y1="228" x2="252" y2="228" stroke="#56c7ff" stroke-width="1.5" stroke-linecap="round"/><line x1="268" y1="228" x2="278" y2="228" stroke="#56c7ff" stroke-width="1.5" stroke-linecap="round"/><rect x="210" y="265" width="80" height="60" fill="#0d1f38" stroke="#1687d9" stroke-width="0.7" rx="2" opacity="0.7"/><line x1="215" y1="273" x2="285" y2="273" stroke="#1687d9" stroke-width="0.8" opacity="0.5"/><line x1="215" y1="281" x2="285" y2="281" stroke="#1687d9" stroke-width="0.8" opacity="0.5"/><line x1="215" y1="289" x2="285" y2="289" stroke="#1687d9" stroke-width="0.8" opacity="0.5"/><line x1="215" y1="297" x2="285" y2="297" stroke="#1687d9" stroke-width="0.8" opacity="0.5"/><line x1="215" y1="305" x2="285" y2="305" stroke="#1687d9" stroke-width="0.8" opacity="0.5"/>
<rect x="350" y="140" width="130" height="200" fill="#162238" stroke="#1687d9" stroke-width="1.2" rx="3"/><rect x="358" y="148" width="114" height="184" fill="#101928" rx="2"/><line x1="350" y1="210" x2="480" y2="210" stroke="#1687d9" stroke-width="0.8" opacity="0.6"/><line x1="350" y1="270" x2="480" y2="270" stroke="#1687d9" stroke-width="0.8" opacity="0.6"/><rect x="365" y="155" width="80" height="48" fill="#0d1f38" stroke="#56c7ff" stroke-width="0.7" rx="2" opacity="0.8"/><line x1="370" y1="163" x2="440" y2="163" stroke="#56c7ff" stroke-width="0.5" opacity="0.5"/><line x1="370" y1="170" x2="440" y2="170" stroke="#56c7ff" stroke-width="0.5" opacity="0.5"/><line x1="370" y1="177" x2="440" y2="177" stroke="#56c7ff" stroke-width="0.5" opacity="0.5"/><line x1="370" y1="184" x2="440" y2="184" stroke="#56c7ff" stroke-width="0.5" opacity="0.5"/><line x1="370" y1="191" x2="440" y2="191" stroke="#56c7ff" stroke-width="0.5" opacity="0.5"/><circle cx="415" cy="240" r="22" fill="#0d1f38" stroke="#1687d9" stroke-width="1"/><circle cx="415" cy="240" r="16" fill="none" stroke="#56c7ff" stroke-width="0.8" opacity="0.7"/><circle cx="415" cy="240" r="5" fill="#1687d9"/><line x1="415" y1="224" x2="415" y2="232" stroke="#56c7ff" stroke-width="1.5" stroke-linecap="round"/><line x1="415" y1="248" x2="415" y2="256" stroke="#56c7ff" stroke-width="1.5" stroke-linecap="round"/><line x1="399" y1="240" x2="407" y2="240" stroke="#56c7ff" stroke-width="1.5" stroke-linecap="round"/><line x1="423" y1="240" x2="431" y2="240" stroke="#56c7ff" stroke-width="1.5" stroke-linecap="round"/><rect x="365" y="277" width="80" height="52" fill="#0d1f38" stroke="#1687d9" stroke-width="0.7" rx="2" opacity="0.7"/><line x1="370" y1="284" x2="440" y2="284" stroke="#1687d9" stroke-width="0.8" opacity="0.5"/><line x1="370" y1="291" x2="440" y2="291" stroke="#1687d9" stroke-width="0.8" opacity="0.5"/><line x1="370" y1="298" x2="440" y2="298" stroke="#1687d9" stroke-width="0.8" opacity="0.5"/><line x1="370" y1="305" x2="440" y2="305" stroke="#1687d9" stroke-width="0.8" opacity="0.5"/><line x1="370" y1="312" x2="440" y2="312" stroke="#1687d9" stroke-width="0.8" opacity="0.5"/>
<rect x="505" y="155" width="120" height="185" fill="#111e30" stroke="#1687d9" stroke-width="0.8" rx="3" opacity="0.6"/><rect x="513" y="163" width="104" height="169" fill="#0c1728" rx="2" opacity="0.6"/>
<rect x="40" y="90" width="590" height="50" fill="#162238" stroke="#1687d9" stroke-width="1" rx="2" opacity="0.5"/>
<rect x="20" y="12" width="200" height="26" fill="#162238" stroke="#1687d9" stroke-width="0.8" rx="4"/>
<text x="30" y="29" fill="#56c7ff" font-family="'Barlow Condensed', sans-serif" font-size="11" font-weight="700" letter-spacing="1.5">UNIDADES DE TRATAMENTO DE AR</text>
<rect x="20" y="386" width="640" height="2" fill="#1687d9" opacity="0.5" rx="1"/>
</svg>
