<svg width="400" height="200" viewBox="0 0 680 400" xmlns="http://www.w3.org/2000/svg">
<rect width="680" height="400" fill="#0b1220"/>
<line x1="0" y1="40" x2="680" y2="40" stroke="#1687d9" stroke-width="0.3" opacity="0.15"/><line x1="0" y1="80" x2="680" y2="80" stroke="#1687d9" stroke-width="0.3" opacity="0.15"/><line x1="0" y1="120" x2="680" y2="120" stroke="#1687d9" stroke-width="0.3" opacity="0.15"/><line x1="0" y1="160" x2="680" y2="160" stroke="#1687d9" stroke-width="0.3" opacity="0.15"/><line x1="0" y1="200" x2="680" y2="200" stroke="#1687d9" stroke-width="0.3" opacity="0.15"/><line x1="0" y1="240" x2="680" y2="240" stroke="#1687d9" stroke-width="0.3" opacity="0.15"/><line x1="0" y1="280" x2="680" y2="280" stroke="#1687d9" stroke-width="0.3" opacity="0.15"/><line x1="0" y1="320" x2="680" y2="320" stroke="#1687d9" stroke-width="0.3" opacity="0.15"/><line x1="40" y1="0" x2="40" y2="400" stroke="#1687d9" stroke-width="0.3" opacity="0.15"/><line x1="120" y1="0" x2="120" y2="400" stroke="#1687d9" stroke-width="0.3" opacity="0.15"/><line x1="200" y1="0" x2="200" y2="400" stroke="#1687d9" stroke-width="0.3" opacity="0.15"/><line x1="280" y1="0" x2="280" y2="400" stroke="#1687d9" stroke-width="0.3" opacity="0.15"/><line x1="360" y1="0" x2="360" y2="400" stroke="#1687d9" stroke-width="0.3" opacity="0.15"/><line x1="440" y1="0" x2="440" y2="400" stroke="#1687d9" stroke-width="0.3" opacity="0.15"/><line x1="520" y1="0" x2="520" y2="400" stroke="#1687d9" stroke-width="0.3" opacity="0.15"/><line x1="600" y1="0" x2="600" y2="400" stroke="#1687d9" stroke-width="0.3" opacity="0.15"/>
<rect x="20" y="342" width="640" height="12" fill="#1a2840" rx="2"/>
<rect x="50" y="150" width="240" height="192" fill="#162238" stroke="#1687d9" stroke-width="1.5" rx="4"/><rect x="60" y="160" width="220" height="174" fill="#101928" rx="3"/><rect x="68" y="168" width="196" height="100" fill="#0d1f38" stroke="#1687d9" stroke-width="0.6" rx="2"/><line x1="73" y1="175" x2="259" y2="175" stroke="#1687d9" stroke-width="0.5" opacity="0.45"/><line x1="73" y1="182" x2="259" y2="182" stroke="#1687d9" stroke-width="0.5" opacity="0.45"/><line x1="73" y1="189" x2="259" y2="189" stroke="#1687d9" stroke-width="0.5" opacity="0.45"/><line x1="73" y1="196" x2="259" y2="196" stroke="#1687d9" stroke-width="0.5" opacity="0.45"/><line x1="73" y1="203" x2="259" y2="203" stroke="#1687d9" stroke-width="0.5" opacity="0.45"/><line x1="73" y1="210" x2="259" y2="210" stroke="#1687d9" stroke-width="0.5" opacity="0.45"/><line x1="73" y1="217" x2="259" y2="217" stroke="#1687d9" stroke-width="0.5" opacity="0.45"/><line x1="73" y1="224" x2="259" y2="224" stroke="#1687d9" stroke-width="0.5" opacity="0.45"/><line x1="73" y1="231" x2="259" y2="231" stroke="#1687d9" stroke-width="0.5" opacity="0.45"/><line x1="73" y1="238" x2="259" y2="238" stroke="#1687d9" stroke-width="0.5" opacity="0.45"/><line x1="73" y1="245" x2="259" y2="245" stroke="#1687d9" stroke-width="0.5" opacity="0.45"/><line x1="73" y1="252" x2="259" y2="252" stroke="#1687d9" stroke-width="0.5" opacity="0.45"/><line x1="73" y1="259" x2="259" y2="259" stroke="#1687d9" stroke-width="0.5" opacity="0.45"/>
<rect x="68" y="278" width="90" height="46" fill="#0d1f38" stroke="#56c7ff" stroke-width="0.8" rx="2"/><circle cx="88" cy="294" r="7" fill="none" stroke="#56c7ff" stroke-width="1.2"/><circle cx="88" cy="294" r="3" fill="#1687d9"/><rect x="80" y="308" width="30" height="6" fill="#1687d9" rx="1" opacity="0.7"/><ellipse cx="230" cy="295" rx="26" ry="26" fill="#0d1f38" stroke="#1687d9" stroke-width="1.2"/><ellipse cx="230" cy="295" rx="18" ry="18" fill="none" stroke="#56c7ff" stroke-width="0.8" opacity="0.6"/><circle cx="230" cy="295" r="6" fill="#1687d9"/>
<rect x="370" y="60" width="200" height="282" fill="#162238" stroke="#1687d9" stroke-width="1.5" rx="4"/><rect x="380" y="70" width="180" height="264" fill="#101928" rx="3"/><rect x="388" y="78" width="164" height="80" fill="#0d1f38" stroke="#56c7ff" stroke-width="0.7" rx="2"/><circle cx="470" cy="118" r="35" fill="none" stroke="#1687d9" stroke-width="0.8" opacity="0.5"/><circle cx="470" cy="118" r="28" fill="none" stroke="#56c7ff" stroke-width="0.6" opacity="0.4"/><circle cx="470" cy="118" r="8" fill="#1687d9" opacity="0.7"/><line x1="470" y1="83" x2="470" y2="95" stroke="#56c7ff" stroke-width="2" stroke-linecap="round"/><line x1="470" y1="141" x2="470" y2="153" stroke="#56c7ff" stroke-width="2" stroke-linecap="round"/><line x1="435" y1="118" x2="447" y2="118" stroke="#56c7ff" stroke-width="2" stroke-linecap="round"/><line x1="493" y1="118" x2="505" y2="118" stroke="#56c7ff" stroke-width="2" stroke-linecap="round"/><line x1="445" y1="93" x2="454" y2="102" stroke="#56c7ff" stroke-width="1.5" stroke-linecap="round"/><line x1="486" y1="134" x2="495" y2="143" stroke="#56c7ff" stroke-width="1.5" stroke-linecap="round"/><line x1="495" y1="93" x2="486" y2="102" stroke="#56c7ff" stroke-width="1.5" stroke-linecap="round"/><line x1="454" y1="134" x2="445" y2="143" stroke="#56c7ff" stroke-width="1.5" stroke-linecap="round"/>
<rect x="388" y="168" width="164" height="110" fill="#0d1f38" stroke="#1687d9" stroke-width="0.7" rx="2" opacity="0.8"/><line x1="393" y1="175" x2="547" y2="175" stroke="#1687d9" stroke-width="0.7" opacity="0.4"/><line x1="393" y1="183" x2="547" y2="183" stroke="#1687d9" stroke-width="0.7" opacity="0.4"/><line x1="393" y1="191" x2="547" y2="191" stroke="#1687d9" stroke-width="0.7" opacity="0.4"/><line x1="393" y1="199" x2="547" y2="199" stroke="#1687d9" stroke-width="0.7" opacity="0.4"/><line x1="393" y1="207" x2="547" y2="207" stroke="#1687d9" stroke-width="0.7" opacity="0.4"/><line x1="393" y1="215" x2="547" y2="215" stroke="#1687d9" stroke-width="0.7" opacity="0.4"/><line x1="393" y1="223" x2="547" y2="223" stroke="#1687d9" stroke-width="0.7" opacity="0.4"/><line x1="393" y1="231" x2="547" y2="231" stroke="#1687d9" stroke-width="0.7" opacity="0.4"/><line x1="393" y1="239" x2="547" y2="239" stroke="#1687d9" stroke-width="0.7" opacity="0.4"/><line x1="393" y1="247" x2="547" y2="247" stroke="#1687d9" stroke-width="0.7" opacity="0.4"/><line x1="393" y1="255" x2="547" y2="255" stroke="#1687d9" stroke-width="0.7" opacity="0.4"/>
<rect x="388" y="288" width="164" height="36" fill="#0d1f38" stroke="#1687d9" stroke-width="0.8" rx="2"/>
<rect x="290" y="278" width="80" height="10" fill="#1687d9" rx="2" opacity="0.85"/><polygon points="370,278 370,288 382,283" fill="#1687d9" opacity="0.85"/>
<rect x="290" y="300" width="80" height="10" fill="#162238" stroke="#1687d9" stroke-width="1" rx="2" opacity="0.85"/><polygon points="292,300 280,295 280,305" fill="#1687d9" opacity="0.85"/>
<rect x="20" y="12" width="220" height="26" fill="#162238" stroke="#1687d9" stroke-width="0.8" rx="4"/>
<text x="30" y="29" fill="#56c7ff" font-family="'Barlow Condensed', sans-serif" font-size="11" font-weight="700" letter-spacing="1.5">CHILLERS E CONDENSADORAS</text>
<rect x="20" y="386" width="640" height="2" fill="#1687d9" opacity="0.5" rx="1"/>
</svg>