<svg width="400" height="200" viewBox="0 0 680 400" xmlns="http://www.w3.org/2000/svg">
<rect width="680" height="400" fill="#0b1220"/>
<line x1="0" y1="40" x2="680" y2="40" stroke="#1687d9" stroke-width="0.3" opacity="0.15"/><line x1="0" y1="80" x2="680" y2="80" stroke="#1687d9" stroke-width="0.3" opacity="0.15"/><line x1="0" y1="160" x2="680" y2="160" stroke="#1687d9" stroke-width="0.3" opacity="0.15"/><line x1="0" y1="240" x2="680" y2="240" stroke="#1687d9" stroke-width="0.3" opacity="0.15"/><line x1="0" y1="320" x2="680" y2="320" stroke="#1687d9" stroke-width="0.3" opacity="0.15"/><line x1="120" y1="0" x2="120" y2="400" stroke="#1687d9" stroke-width="0.3" opacity="0.15"/><line x1="240" y1="0" x2="240" y2="400" stroke="#1687d9" stroke-width="0.3" opacity="0.15"/><line x1="360" y1="0" x2="360" y2="400" stroke="#1687d9" stroke-width="0.3" opacity="0.15"/><line x1="480" y1="0" x2="480" y2="400" stroke="#1687d9" stroke-width="0.3" opacity="0.15"/><line x1="600" y1="0" x2="600" y2="400" stroke="#1687d9" stroke-width="0.3" opacity="0.15"/>
<rect x="30" y="30" width="620" height="18" fill="#162238" stroke="#1687d9" stroke-width="0.5"/>
<rect x="240" y="30" width="200" height="28" fill="#1a2840" stroke="#1687d9" stroke-width="1.2" rx="2"/><rect x="248" y="35" width="184" height="16" fill="#101928" rx="1"/>
<rect x="278" y="58" width="40" height="50" fill="#1a2840" stroke="#1687d9" stroke-width="1" rx="1"/><rect x="362" y="58" width="40" height="50" fill="#1a2840" stroke="#1687d9" stroke-width="1" rx="1"/>
<rect x="160" y="50" width="360" height="90" fill="#162238" stroke="#56c7ff" stroke-width="1.5" rx="4"/><rect x="168" y="57" width="344" height="76" fill="#101928" rx="3"/>
<rect x="176" y="62" width="154" height="32" fill="#0d1f38" stroke="#1687d9" stroke-width="0.7" rx="2"/><line x1="181" y1="68" x2="325" y2="68" stroke="#1687d9" stroke-width="0.5" opacity="0.5"/><line x1="181" y1="73" x2="325" y2="73" stroke="#1687d9" stroke-width="0.5" opacity="0.5"/><line x1="181" y1="78" x2="325" y2="78" stroke="#1687d9" stroke-width="0.5" opacity="0.5"/><line x1="181" y1="83" x2="325" y2="83" stroke="#1687d9" stroke-width="0.5" opacity="0.5"/><line x1="181" y1="88" x2="325" y2="88" stroke="#1687d9" stroke-width="0.5" opacity="0.5"/>
<circle cx="380" cy="78" r="28" fill="#0d1f38" stroke="#1687d9" stroke-width="1.2"/><circle cx="380" cy="78" r="20" fill="none" stroke="#56c7ff" stroke-width="0.9" opacity="0.7"/><circle cx="380" cy="78" r="7" fill="#1687d9"/><line x1="380" y1="58" x2="380" y2="68" stroke="#56c7ff" stroke-width="2" stroke-linecap="round"/><line x1="380" y1="88" x2="380" y2="98" stroke="#56c7ff" stroke-width="2" stroke-linecap="round"/><line x1="360" y1="78" x2="370" y2="78" stroke="#56c7ff" stroke-width="2" stroke-linecap="round"/><line x1="390" y1="78" x2="400" y2="78" stroke="#56c7ff" stroke-width="2" stroke-linecap="round"/>
<rect x="430" y="62" width="74" height="62" fill="#0d1f38" stroke="#56c7ff" stroke-width="0.7" rx="2"/><line x1="435" y1="69" x2="499" y2="69" stroke="#56c7ff" stroke-width="0.8" opacity="0.5"/><line x1="435" y1="76" x2="499" y2="76" stroke="#56c7ff" stroke-width="0.8" opacity="0.5"/><line x1="435" y1="83" x2="499" y2="83" stroke="#56c7ff" stroke-width="0.8" opacity="0.5"/><line x1="435" y1="90" x2="499" y2="90" stroke="#56c7ff" stroke-width="0.8" opacity="0.5"/><line x1="435" y1="97" x2="499" y2="97" stroke="#56c7ff" stroke-width="0.8" opacity="0.5"/><line x1="435" y1="104" x2="499" y2="104" stroke="#56c7ff" stroke-width="0.8" opacity="0.5"/><line x1="435" y1="111" x2="499" y2="111" stroke="#56c7ff" stroke-width="0.8" opacity="0.5"/><line x1="435" y1="118" x2="499" y2="118" stroke="#56c7ff" stroke-width="0.8" opacity="0.5"/>
<rect x="165" y="138" width="350" height="12" fill="#162238" stroke="#1687d9" stroke-width="0.8" rx="2" opacity="0.7"/>
<rect x="130" y="160" width="140" height="30" fill="#162238" stroke="#56c7ff" stroke-width="1" rx="3"/><rect x="137" y="165" width="126" height="20" fill="#0d1f38" rx="2"/><line x1="142" y1="169" x2="258" y2="169" stroke="#56c7ff" stroke-width="0.7" opacity="0.6"/><line x1="142" y1="174" x2="258" y2="174" stroke="#56c7ff" stroke-width="0.7" opacity="0.6"/><line x1="142" y1="179" x2="258" y2="179" stroke="#56c7ff" stroke-width="0.7" opacity="0.6"/>
<rect x="410" y="160" width="140" height="30" fill="#162238" stroke="#56c7ff" stroke-width="1" rx="3"/><rect x="417" y="165" width="126" height="20" fill="#0d1f38" rx="2"/><line x1="422" y1="169" x2="538" y2="169" stroke="#56c7ff" stroke-width="0.7" opacity="0.6"/><line x1="422" y1="174" x2="538" y2="174" stroke="#56c7ff" stroke-width="0.7" opacity="0.6"/><line x1="422" y1="179" x2="538" y2="179" stroke="#56c7ff" stroke-width="0.7" opacity="0.6"/>
<line x1="175" y1="195" x2="175" y2="250" stroke="#56c7ff" stroke-width="1" opacity="0.6"/><polygon points="172,250 178,250 175,262" fill="#56c7ff" opacity="0.6"/><line x1="200" y1="195" x2="200" y2="265" stroke="#56c7ff" stroke-width="1" opacity="0.5"/><polygon points="197,265 203,265 200,277" fill="#56c7ff" opacity="0.5"/><line x1="225" y1="195" x2="225" y2="250" stroke="#56c7ff" stroke-width="1" opacity="0.6"/><polygon points="222,250 228,250 225,262" fill="#56c7ff" opacity="0.6"/>
<line x1="455" y1="195" x2="455" y2="250" stroke="#56c7ff" stroke-width="1" opacity="0.6"/><polygon points="452,250 458,250 455,262" fill="#56c7ff" opacity="0.6"/><line x1="480" y1="195" x2="480" y2="265" stroke="#56c7ff" stroke-width="1" opacity="0.5"/><polygon points="477,265 483,265 480,277" fill="#56c7ff" opacity="0.5"/><line x1="505" y1="195" x2="505" y2="250" stroke="#56c7ff" stroke-width="1" opacity="0.6"/><polygon points="502,250 508,250 505,262" fill="#56c7ff" opacity="0.6"/>
<rect x="30" y="364" width="620" height="6" fill="#162238" stroke="#1687d9" stroke-width="0.5"/>
<rect x="20" y="12" width="220" height="26" fill="#162238" stroke="#1687d9" stroke-width="0.8" rx="4"/>
<text x="30" y="29" fill="#56c7ff" font-family="'Barlow Condensed', sans-serif" font-size="11" font-weight="700" letter-spacing="1.5">FAN COILS E EVAPORADORES</text>
<rect x="20" y="386" width="640" height="2" fill="#1687d9" opacity="0.5" rx="1"/>
</svg>