<svg width="400" height="200" viewBox="0 0 680 400" xmlns="http://www.w3.org/2000/svg">
<rect width="680" height="400" fill="#0b1220"/>
<line x1="0" y1="40" x2="680" y2="40" stroke="#1687d9" stroke-width="0.3" opacity="0.15"/><line x1="0" y1="80" x2="680" y2="80" stroke="#1687d9" stroke-width="0.3" opacity="0.15"/><line x1="0" y1="160" x2="680" y2="160" stroke="#1687d9" stroke-width="0.3" opacity="0.15"/><line x1="0" y1="240" x2="680" y2="240" stroke="#1687d9" stroke-width="0.3" opacity="0.15"/><line x1="0" y1="320" x2="680" y2="320" stroke="#1687d9" stroke-width="0.3" opacity="0.15"/><line x1="120" y1="0" x2="120" y2="400" stroke="#1687d9" stroke-width="0.3" opacity="0.15"/><line x1="240" y1="0" x2="240" y2="400" stroke="#1687d9" stroke-width="0.3" opacity="0.15"/><line x1="360" y1="0" x2="360" y2="400" stroke="#1687d9" stroke-width="0.3" opacity="0.15"/><line x1="480" y1="0" x2="480" y2="400" stroke="#1687d9" stroke-width="0.3" opacity="0.15"/><line x1="600" y1="0" x2="600" y2="400" stroke="#1687d9" stroke-width="0.3" opacity="0.15"/>
<rect x="30" y="30" width="620" height="18" fill="#162238" stroke="#1687d9" stroke-width="0.5"/>
<rect x="240" y="30" width="200" height="28" fill="#1a2840" stroke="#1687d9" stroke-width="1.2" rx="2"/><rect x="248" y="35" width="184" height="16" fill="#101928" rx="1"/>
<rect x="278" y="58" width="40" height="50" fill="#1a2840" stroke="#1687d9" stroke-width="1" rx="1"/><rect x="362" y="58" width="40" height="50" fill="#1a2840" stroke="#1687d9" stroke-width="1" rx="1"/>
<polygon points="200,108 380,108 350,158 230,158" fill="#162238" stroke="#56c7ff" stroke-width="1.5"/><polygon points="205,108 375,108 347,152 233,152" fill="#101928"/><line x1="200" y1="108" x2="380" y2="108" stroke="#56c7ff" stroke-width="2"/>
<rect x="236" y="126" width="108" height="16" fill="#0d1f38" stroke="#1687d9" stroke-width="0.7" rx="1"/><line x1="241" y1="130" x2="339" y2="130" stroke="#56c7ff" stroke-width="0.5" opacity="0.5"/><line x1="241" y1="135" x2="339" y2="135" stroke="#56c7ff" stroke-width="0.5" opacity="0.5"/><line x1="241" y1="140" x2="339" y2="140" stroke="#56c7ff" stroke-width="0.5" opacity="0.5"/>
<rect x="230" y="154" width="120" height="6" fill="#162238" stroke="#1687d9" stroke-width="0.8" rx="1"/>
<polygon points="380,108 560,108 530,158 410,158" fill="#162238" stroke="#56c7ff" stroke-width="1.5"/><polygon points="385,108 555,108 527,152 413,152" fill="#101928"/><line x1="380" y1="108" x2="560" y2="108" stroke="#56c7ff" stroke-width="2"/>
<rect x="416" y="126" width="108" height="16" fill="#0d1f38" stroke="#1687d9" stroke-width="0.7" rx="1"/><line x1="421" y1="130" x2="519" y2="130" stroke="#56c7ff" stroke-width="0.5" opacity="0.5"/><line x1="421" y1="135" x2="519" y2="135" stroke="#56c7ff" stroke-width="0.5" opacity="0.5"/><line x1="421" y1="140" x2="519" y2="140" stroke="#56c7ff" stroke-width="0.5" opacity="0.5"/>
<rect x="410" y="154" width="120" height="6" fill="#162238" stroke="#1687d9" stroke-width="0.8" rx="1"/>
<rect x="190" y="280" width="200" height="64" fill="#1a2840" stroke="#1687d9" stroke-width="1" rx="3"/><rect x="198" y="287" width="184" height="50" fill="#101928" rx="2"/>
<circle cx="230" cy="312" r="20" fill="#0d1f38" stroke="#1687d9" stroke-width="1"/><circle cx="230" cy="312" r="14" fill="none" stroke="#56c7ff" stroke-width="0.7" opacity="0.5"/><circle cx="230" cy="312" r="7" fill="#0d1f38" stroke="#1687d9" stroke-width="0.8"/>
<circle cx="290" cy="312" r="20" fill="#0d1f38" stroke="#1687d9" stroke-width="1"/><circle cx="290" cy="312" r="14" fill="none" stroke="#56c7ff" stroke-width="0.7" opacity="0.5"/><circle cx="290" cy="312" r="7" fill="#0d1f38" stroke="#1687d9" stroke-width="0.8"/>
<circle cx="350" cy="312" r="20" fill="#0d1f38" stroke="#1687d9" stroke-width="1"/><circle cx="350" cy="312" r="14" fill="none" stroke="#56c7ff" stroke-width="0.7" opacity="0.5"/><circle cx="350" cy="312" r="7" fill="#0d1f38" stroke="#1687d9" stroke-width="0.8"/>
<rect x="190" y="344" width="200" height="10" fill="#162238" stroke="#1687d9" stroke-width="0.8" rx="1"/>
<rect x="380" y="280" width="200" height="64" fill="#1a2840" stroke="#1687d9" stroke-width="1" rx="3"/><rect x="388" y="287" width="184" height="50" fill="#101928" rx="2"/>
<circle cx="420" cy="312" r="20" fill="#0d1f38" stroke="#1687d9" stroke-width="1"/><circle cx="420" cy="312" r="14" fill="none" stroke="#56c7ff" stroke-width="0.7" opacity="0.5"/><circle cx="420" cy="312" r="7" fill="#0d1f38" stroke="#1687d9" stroke-width="0.8"/>
<circle cx="480" cy="312" r="20" fill="#0d1f38" stroke="#1687d9" stroke-width="1"/><circle cx="480" cy="312" r="14" fill="none" stroke="#56c7ff" stroke-width="0.7" opacity="0.5"/><circle cx="480" cy="312" r="7" fill="#0d1f38" stroke="#1687d9" stroke-width="0.8"/>
<circle cx="540" cy="312" r="20" fill="#0d1f38" stroke="#1687d9" stroke-width="1"/><circle cx="540" cy="312" r="14" fill="none" stroke="#56c7ff" stroke-width="0.7" opacity="0.5"/><circle cx="540" cy="312" r="7" fill="#0d1f38" stroke="#1687d9" stroke-width="0.8"/>
<rect x="380" y="344" width="200" height="10" fill="#162238" stroke="#1687d9" stroke-width="0.8" rx="1"/>
<line x1="240" y1="274" x2="240" y2="200" stroke="#56c7ff" stroke-width="0.7" opacity="0.35" stroke-dasharray="4 3"/><polygon points="237,200 243,200 240,190" fill="#56c7ff" opacity="0.35"/>
<line x1="290" y1="274" x2="278" y2="200" stroke="#56c7ff" stroke-width="0.7" opacity="0.35" stroke-dasharray="4 3"/><polygon points="275,200 281,200 278,190" fill="#56c7ff" opacity="0.35"/>
<line x1="430" y1="274" x2="430" y2="200" stroke="#56c7ff" stroke-width="0.7" opacity="0.35" stroke-dasharray="4 3"/><polygon points="427,200 433,200 430,190" fill="#56c7ff" opacity="0.35"/>
<rect x="30" y="358" width="620" height="10" fill="#162238" stroke="#1687d9" stroke-width="0.5"/>
<rect x="20" y="12" width="255" height="26" fill="#162238" stroke="#1687d9" stroke-width="0.8" rx="4"/>
<text x="30" y="29" fill="#56c7ff" font-family="'Barlow Condensed', sans-serif" font-size="11" font-weight="700" letter-spacing="1.5">COIFAS, EXAUSTAO E INSUFLAMENTO</text>
<rect x="20" y="386" width="640" height="2" fill="#1687d9" opacity="0.5" rx="1"/>
</svg>