<svg width="400" height="200" viewBox="0 0 680 400" xmlns="http://www.w3.org/2000/svg">
<rect width="680" height="400" fill="#0b1220"/>
<line x1="0" y1="40" x2="680" y2="40" stroke="#1687d9" stroke-width="0.3" opacity="0.15"/><line x1="0" y1="120" x2="680" y2="120" stroke="#1687d9" stroke-width="0.3" opacity="0.15"/><line x1="0" y1="200" x2="680" y2="200" stroke="#1687d9" stroke-width="0.3" opacity="0.15"/><line x1="0" y1="280" x2="680" y2="280" stroke="#1687d9" stroke-width="0.3" opacity="0.15"/><line x1="0" y1="360" x2="680" y2="360" stroke="#1687d9" stroke-width="0.3" opacity="0.15"/><line x1="80" y1="0" x2="80" y2="400" stroke="#1687d9" stroke-width="0.3" opacity="0.15"/><line x1="160" y1="0" x2="160" y2="400" stroke="#1687d9" stroke-width="0.3" opacity="0.15"/><line x1="240" y1="0" x2="240" y2="400" stroke="#1687d9" stroke-width="0.3" opacity="0.15"/><line x1="320" y1="0" x2="320" y2="400" stroke="#1687d9" stroke-width="0.3" opacity="0.15"/><line x1="400" y1="0" x2="400" y2="400" stroke="#1687d9" stroke-width="0.3" opacity="0.15"/><line x1="480" y1="0" x2="480" y2="400" stroke="#1687d9" stroke-width="0.3" opacity="0.15"/><line x1="560" y1="0" x2="560" y2="400" stroke="#1687d9" stroke-width="0.3" opacity="0.15"/>
<rect x="30" y="30" width="30" height="340" fill="#162238" stroke="#1687d9" stroke-width="0.5"/>
<rect x="60" y="60" width="160" height="280" fill="#162238" stroke="#56c7ff" stroke-width="2" rx="3"/><rect x="68" y="68" width="144" height="264" fill="#101928" rx="2"/>
<rect x="72" y="75" width="136" height="14" fill="#1a2840" stroke="#1687d9" stroke-width="0.7" rx="1"/><rect x="72" y="95" width="136" height="14" fill="#1a2840" stroke="#1687d9" stroke-width="0.7" rx="1"/><rect x="72" y="115" width="136" height="14" fill="#1a2840" stroke="#1687d9" stroke-width="0.7" rx="1"/><rect x="72" y="135" width="136" height="14" fill="#1a2840" stroke="#1687d9" stroke-width="0.7" rx="1"/><rect x="72" y="155" width="136" height="14" fill="#1a2840" stroke="#1687d9" stroke-width="0.7" rx="1"/><rect x="72" y="175" width="136" height="14" fill="#1a2840" stroke="#1687d9" stroke-width="0.7" rx="1"/><rect x="72" y="195" width="136" height="14" fill="#1a2840" stroke="#1687d9" stroke-width="0.7" rx="1"/><rect x="72" y="215" width="136" height="14" fill="#1a2840" stroke="#1687d9" stroke-width="0.7" rx="1"/><rect x="72" y="235" width="136" height="14" fill="#1a2840" stroke="#1687d9" stroke-width="0.7" rx="1"/><rect x="72" y="255" width="136" height="14" fill="#1a2840" stroke="#1687d9" stroke-width="0.7" rx="1"/><rect x="72" y="275" width="136" height="14" fill="#1a2840" stroke="#1687d9" stroke-width="0.7" rx="1"/><rect x="72" y="295" width="136" height="14" fill="#1a2840" stroke="#1687d9" stroke-width="0.7" rx="1"/><rect x="72" y="315" width="136" height="14" fill="#1a2840" stroke="#1687d9" stroke-width="0.7" rx="1"/>
<line x1="77" y1="75" x2="203" y2="75" stroke="#56c7ff" stroke-width="0.6" opacity="0.4"/><line x1="77" y1="95" x2="203" y2="95" stroke="#56c7ff" stroke-width="0.6" opacity="0.4"/><line x1="77" y1="115" x2="203" y2="115" stroke="#56c7ff" stroke-width="0.6" opacity="0.4"/><line x1="77" y1="135" x2="203" y2="135" stroke="#56c7ff" stroke-width="0.6" opacity="0.4"/><line x1="77" y1="155" x2="203" y2="155" stroke="#56c7ff" stroke-width="0.6" opacity="0.4"/><line x1="77" y1="175" x2="203" y2="175" stroke="#56c7ff" stroke-width="0.6" opacity="0.4"/><line x1="77" y1="195" x2="203" y2="195" stroke="#56c7ff" stroke-width="0.6" opacity="0.4"/><line x1="77" y1="215" x2="203" y2="215" stroke="#56c7ff" stroke-width="0.6" opacity="0.4"/><line x1="77" y1="235" x2="203" y2="235" stroke="#56c7ff" stroke-width="0.6" opacity="0.4"/><line x1="77" y1="255" x2="203" y2="255" stroke="#56c7ff" stroke-width="0.6" opacity="0.4"/><line x1="77" y1="275" x2="203" y2="275" stroke="#56c7ff" stroke-width="0.6" opacity="0.4"/><line x1="77" y1="295" x2="203" y2="295" stroke="#56c7ff" stroke-width="0.6" opacity="0.4"/><line x1="77" y1="315" x2="203" y2="315" stroke="#56c7ff" stroke-width="0.6" opacity="0.4"/>
<rect x="220" y="60" width="50" height="280" fill="#162238" stroke="#1687d9" stroke-width="1.2" rx="2"/><rect x="228" y="68" width="34" height="264" fill="#0d1f38" rx="1"/>
<line x1="232" y1="72" x2="258" y2="72" stroke="#56c7ff" stroke-width="0.5" opacity="0.4"/><line x1="232" y1="86" x2="258" y2="86" stroke="#56c7ff" stroke-width="0.5" opacity="0.4"/><line x1="232" y1="100" x2="258" y2="100" stroke="#56c7ff" stroke-width="0.5" opacity="0.4"/><line x1="232" y1="114" x2="258" y2="114" stroke="#56c7ff" stroke-width="0.5" opacity="0.4"/><line x1="232" y1="128" x2="258" y2="128" stroke="#56c7ff" stroke-width="0.5" opacity="0.4"/><line x1="232" y1="142" x2="258" y2="142" stroke="#56c7ff" stroke-width="0.5" opacity="0.4"/><line x1="232" y1="156" x2="258" y2="156" stroke="#56c7ff" stroke-width="0.5" opacity="0.4"/><line x1="232" y1="170" x2="258" y2="170" stroke="#56c7ff" stroke-width="0.5" opacity="0.4"/><line x1="232" y1="184" x2="258" y2="184" stroke="#56c7ff" stroke-width="0.5" opacity="0.4"/><line x1="232" y1="198" x2="258" y2="198" stroke="#56c7ff" stroke-width="0.5" opacity="0.4"/><line x1="232" y1="212" x2="258" y2="212" stroke="#56c7ff" stroke-width="0.5" opacity="0.4"/><line x1="232" y1="226" x2="258" y2="226" stroke="#56c7ff" stroke-width="0.5" opacity="0.4"/><line x1="232" y1="240" x2="258" y2="240" stroke="#56c7ff" stroke-width="0.5" opacity="0.4"/><line x1="232" y1="254" x2="258" y2="254" stroke="#56c7ff" stroke-width="0.5" opacity="0.4"/><line x1="232" y1="268" x2="258" y2="268" stroke="#56c7ff" stroke-width="0.5" opacity="0.4"/><line x1="232" y1="282" x2="258" y2="282" stroke="#56c7ff" stroke-width="0.5" opacity="0.4"/><line x1="232" y1="296" x2="258" y2="296" stroke="#56c7ff" stroke-width="0.5" opacity="0.4"/><line x1="232" y1="316" x2="258" y2="316" stroke="#56c7ff" stroke-width="0.5" opacity="0.4"/>
<rect x="270" y="60" width="50" height="280" fill="#162238" stroke="#1687d9" stroke-width="1.2" rx="2"/><rect x="278" y="68" width="34" height="264" fill="#0d1f38" rx="1"/>
<line x1="282" y1="78" x2="308" y2="78" stroke="#1687d9" stroke-width="1" opacity="0.5"/><line x1="282" y1="93" x2="308" y2="93" stroke="#1687d9" stroke-width="1" opacity="0.5"/><line x1="282" y1="108" x2="308" y2="108" stroke="#1687d9" stroke-width="1" opacity="0.5"/><line x1="282" y1="123" x2="308" y2="123" stroke="#1687d9" stroke-width="1" opacity="0.5"/><line x1="282" y1="138" x2="308" y2="138" stroke="#1687d9" stroke-width="1" opacity="0.5"/><line x1="282" y1="153" x2="308" y2="153" stroke="#1687d9" stroke-width="1" opacity="0.5"/><line x1="282" y1="168" x2="308" y2="168" stroke="#1687d9" stroke-width="1" opacity="0.5"/><line x1="282" y1="183" x2="308" y2="183" stroke="#1687d9" stroke-width="1" opacity="0.5"/><line x1="282" y1="198" x2="308" y2="198" stroke="#1687d9" stroke-width="1" opacity="0.5"/><line x1="282" y1="213" x2="308" y2="213" stroke="#1687d9" stroke-width="1" opacity="0.5"/><line x1="282" y1="228" x2="308" y2="228" stroke="#1687d9" stroke-width="1" opacity="0.5"/><line x1="282" y1="243" x2="308" y2="243" stroke="#1687d9" stroke-width="1" opacity="0.5"/><line x1="282" y1="258" x2="308" y2="258" stroke="#1687d9" stroke-width="1" opacity="0.5"/><line x1="282" y1="273" x2="308" y2="273" stroke="#1687d9" stroke-width="1" opacity="0.5"/><line x1="282" y1="288" x2="308" y2="288" stroke="#1687d9" stroke-width="1" opacity="0.5"/><line x1="282" y1="303" x2="308" y2="303" stroke="#1687d9" stroke-width="1" opacity="0.5"/><line x1="282" y1="318" x2="308" y2="318" stroke="#1687d9" stroke-width="1" opacity="0.5"/>
<rect x="320" y="60" width="180" height="280" fill="#101928" stroke="#1687d9" stroke-width="1" rx="2" opacity="0.7"/>
<line x1="340" y1="120" x2="390" y2="120" stroke="#56c7ff" stroke-width="1.2" opacity="0.6"/><polygon points="390,116 400,120 390,124" fill="#56c7ff" opacity="0.6"/>
<line x1="340" y1="200" x2="390" y2="200" stroke="#56c7ff" stroke-width="1.2" opacity="0.6"/><polygon points="390,196 400,200 390,204" fill="#56c7ff" opacity="0.6"/>
<line x1="340" y1="280" x2="390" y2="280" stroke="#56c7ff" stroke-width="1.2" opacity="0.6"/><polygon points="390,276 400,280 390,284" fill="#56c7ff" opacity="0.6"/>
<rect x="500" y="140" width="140" height="120" fill="#162238" stroke="#1687d9" stroke-width="1.2" rx="3"/><rect x="508" y="148" width="124" height="104" fill="#101928" rx="2"/>
<line x1="530" y1="200" x2="580" y2="200" stroke="#56c7ff" stroke-width="1.2" opacity="0.7"/><polygon points="580,196 590,200 580,204" fill="#56c7ff" opacity="0.7"/>
<rect x="20" y="12" width="275" height="26" fill="#162238" stroke="#1687d9" stroke-width="0.8" rx="4"/>
<text x="30" y="29" fill="#56c7ff" font-family="'Barlow Condensed', sans-serif" font-size="11" font-weight="700" letter-spacing="1.5">FILTROS, VENEZIANAS E SEPARADORES</text>
<rect x="20" y="386" width="640" height="2" fill="#1687d9" opacity="0.5" rx="1"/>
</svg>